# xmcd
#
# Track frame offsets:
#	150
#	12075
#	25125
#	44400
#	63450
#	77550
#	100800
#	118050
#	137700
#	154050
#	179550
#
# Disc length: 2618 seconds
#
# Revision: 1
# Processed by: cddbd v1.5.2PL0 Copyright (c) Steve Scherf et al.
# Submitted via: audiograbber 1.83.01
#
DISCID=8b0a380b
DTITLE=Ian Tyson - Cowboyography
DYEAR=1986
DGENRE=Country
TTITLE0=Springtime
TTITLE1=Navajo Rug
TTITLE2=Summer Wages
TTITLE3=Fifty Years Ago
TTITLE4=Rockies Turn Rose
TTITLE5=Claude Dallas
TTITLE6=Own Heart's Delight
TTITLE7=The Gift
TTITLE8=Cowboy Pride
TTITLE9=Old Cheyenne
TTITLE10=The Coyote and The Cowboy
EXTD=
EXTT0=
EXTT1=
EXTT2=
EXTT3=
EXTT4=
EXTT5=
EXTT6=
EXTT7=
EXTT8=
EXTT9=
EXTT10=
PLAYORDER=
